<svg xmlns="http://www.w3.org/2000/svg" viewBox="0 0 111.92 47.26"><defs><style>.cls-1{fill:#fc625f;}.cls-2{fill:#2f323a;}</style></defs><title>Asset 1</title><g id="Layer_2" data-name="Layer 2"><g id="Layer_1-2" data-name="Layer 1"><path class="cls-1" d="M86.72,16.91c0-6.65-6-11.34-14.21-11.34-9.61,0-16.31,6.61-18.63,14.62l-11.13,0a1.11,1.11,0,0,1-1.09-1.29l1.11-6.49c.49-2.94,2.45-4.62,6-4.62a42.5,42.5,0,0,1,7.3,1.56,1.11,1.11,0,0,0,1.36-.79L59,2.7a1.1,1.1,0,0,0-.75-1.33A31.75,31.75,0,0,0,49.42,0C41.09,0,35.21,4.34,33.81,12.39l-1.14,6.76a1.11,1.11,0,0,1-.76.87l-7.26,2.26a1.11,1.11,0,0,0-.76.86L23.55,25a1.11,1.11,0,0,0,1.09,1.3h5.48a1.11,1.11,0,0,1,1.09,1.29L28,46a1.1,1.1,0,0,0,1.09,1.29h6.72a1.09,1.09,0,0,0,1.08-.91L40.3,27.23a1.1,1.1,0,0,1,1.09-.91l11.6,0s0,.06,0,.09c0,9,5.81,13.65,15.4,13.65,4.63,0,9.74-1.1,13.13-3A1.09,1.09,0,0,0,82,35.76l-1.51-4.83A1.1,1.1,0,0,0,79,30.25a25.91,25.91,0,0,1-9.61,2.55c-5.18.06-7.28-2.45-7.49-6.51h11.9C81.75,26.29,86.72,23,86.72,16.91ZM62.78,20.2c1.4-4,4.41-7.49,9.24-7.49,3.36,0,6.09,1.75,6.09,4.06,0,1.82-1.75,3.43-6.23,3.43Z"/><path class="cls-2" d="M0,24.1,18.2,12.77v3.5L3,25.58,18.2,34.83v3.5L0,27.11Z"/><path class="cls-2" d="M111.92,27.11,93.72,38.33v-3.5L109,25.58,93.72,16.27v-3.5l18.2,11.33Z"/></g></g></svg>